<svg width="37" height="36" viewBox="0 0 37 36" fill="none" xmlns="http://www.w3.org/2000/svg">
    <g clip-path="url(#clip0_396_352)">
    <path d="M18.5 3.24141C23.443 3.24141 24.0283 3.2625 25.9723 3.34687C27.7789 3.42422 28.7545 3.71953 29.4049 3.96563C30.2648 4.28906 30.8863 4.68281 31.5295 5.30859C32.1799 5.94141 32.5773 6.53906 32.9098 7.37578C33.1627 8.00859 33.4662 8.96484 33.5457 10.7156C33.6324 12.6141 33.6541 13.1836 33.6541 17.9859C33.6541 22.7953 33.6324 23.3648 33.5457 25.2563C33.4662 27.0141 33.1627 27.9633 32.9098 28.5961C32.5773 29.4328 32.1727 30.0375 31.5295 30.6633C30.8791 31.2961 30.2648 31.6828 29.4049 32.0062C28.7545 32.2523 27.7717 32.5477 25.9723 32.625C24.0211 32.7094 23.4357 32.7305 18.5 32.7305C13.557 32.7305 12.9717 32.7094 11.0277 32.625C9.22109 32.5477 8.24551 32.2523 7.59512 32.0062C6.73516 31.6828 6.11367 31.2891 5.47051 30.6633C4.82012 30.0305 4.42266 29.4328 4.09023 28.5961C3.8373 27.9633 3.53379 27.007 3.4543 25.2563C3.36758 23.3578 3.3459 22.7883 3.3459 17.9859C3.3459 13.1766 3.36758 12.607 3.4543 10.7156C3.53379 8.95781 3.8373 8.00859 4.09023 7.37578C4.42266 6.53906 4.82734 5.93437 5.47051 5.30859C6.1209 4.67578 6.73516 4.28906 7.59512 3.96563C8.24551 3.71953 9.22832 3.42422 11.0277 3.34687C12.9717 3.2625 13.557 3.24141 18.5 3.24141ZM18.5 0C13.4775 0 12.8488 0.0210937 10.876 0.105469C8.91035 0.189844 7.55898 0.499219 6.38828 0.942187C5.16699 1.40625 4.13359 2.01797 3.10742 3.02344C2.07402 4.02187 1.44531 5.02734 0.968359 6.20859C0.513086 7.35469 0.195117 8.6625 0.108398 10.575C0.0216797 12.5016 0 13.1133 0 18C0 22.8867 0.0216797 23.4984 0.108398 25.418C0.195117 27.3305 0.513086 28.6453 0.968359 29.7844C1.44531 30.9727 2.07402 31.9781 3.10742 32.9766C4.13359 33.975 5.16699 34.5937 6.38105 35.0508C7.55898 35.4937 8.90312 35.8031 10.8687 35.8875C12.8416 35.9719 13.4703 35.993 18.4928 35.993C23.5152 35.993 24.1439 35.9719 26.1168 35.8875C28.0824 35.8031 29.4338 35.4937 30.6045 35.0508C31.8186 34.5937 32.852 33.975 33.8781 32.9766C34.9043 31.9781 35.5402 30.9727 36.01 29.7914C36.4652 28.6453 36.7832 27.3375 36.8699 25.425C36.9566 23.5055 36.9783 22.8937 36.9783 18.007C36.9783 13.1203 36.9566 12.5086 36.8699 10.5891C36.7832 8.67656 36.4652 7.36172 36.01 6.22266C35.5547 5.02734 34.926 4.02187 33.8926 3.02344C32.8664 2.025 31.833 1.40625 30.6189 0.949219C29.441 0.50625 28.0969 0.196875 26.1313 0.1125C24.1512 0.0210938 23.5225 0 18.5 0Z" fill="white"/>
    <path d="M18.5 8.75391C13.2535 8.75391 8.99707 12.8953 8.99707 18C8.99707 23.1047 13.2535 27.2461 18.5 27.2461C23.7465 27.2461 28.0029 23.1047 28.0029 18C28.0029 12.8953 23.7465 8.75391 18.5 8.75391ZM18.5 23.9977C15.0963 23.9977 12.3357 21.3117 12.3357 18C12.3357 14.6883 15.0963 12.0023 18.5 12.0023C21.9037 12.0023 24.6643 14.6883 24.6643 18C24.6643 21.3117 21.9037 23.9977 18.5 23.9977Z" fill="white"/>
    <path d="M30.5973 8.38833C30.5973 9.58365 29.6 10.5469 28.3787 10.5469C27.1502 10.5469 26.1602 9.57662 26.1602 8.38833C26.1602 7.19302 27.1574 6.22974 28.3787 6.22974C29.6 6.22974 30.5973 7.20005 30.5973 8.38833Z" fill="white"/>
    </g>
    <defs>
    <clipPath id="clip0_396_352">
    <rect width="37" height="36" fill="white"/>
    </clipPath>
    </defs>
    </svg>
    